<mxfile host="app.diagrams.net" modified="2023-03-26T16:35:23.717Z" agent="Mozilla/5.0 (Windows NT 10.0; Win64; x64) AppleWebKit/537.36 (KHTML, like Gecko) Chrome/111.0.0.0 Safari/537.36 Edg/111.0.1661.54" version="21.1.0" etag="op27JdEptwsDpmAUqLLS" type="device">
  <diagram id="uVk0J-K6onSaAGh6XzIJ" name="第 1 页">
    <mxGraphModel dx="2458" dy="889" grid="1" gridSize="10" guides="1" tooltips="1" connect="1" arrows="1" fold="1" page="1" pageScale="1" pageWidth="827" pageHeight="1169" math="0" shadow="0">
      <root>
        <mxCell id="0" />
        <mxCell id="1" parent="0" />
        <mxCell id="iXPqiAgGhzlMh0pPjfNR-3" style="edgeStyle=orthogonalEdgeStyle;rounded=0;orthogonalLoop=1;jettySize=auto;html=1;" edge="1" parent="1" source="iXPqiAgGhzlMh0pPjfNR-1" target="iXPqiAgGhzlMh0pPjfNR-2">
          <mxGeometry relative="1" as="geometry" />
        </mxCell>
        <mxCell id="iXPqiAgGhzlMh0pPjfNR-1" value="开始" style="rounded=1;whiteSpace=wrap;html=1;" vertex="1" parent="1">
          <mxGeometry x="350" y="60" width="120" height="60" as="geometry" />
        </mxCell>
        <mxCell id="iXPqiAgGhzlMh0pPjfNR-5" value="用户" style="edgeStyle=orthogonalEdgeStyle;rounded=0;orthogonalLoop=1;jettySize=auto;html=1;" edge="1" parent="1" source="iXPqiAgGhzlMh0pPjfNR-2" target="iXPqiAgGhzlMh0pPjfNR-4">
          <mxGeometry relative="1" as="geometry">
            <Array as="points">
              <mxPoint x="74" y="210" />
            </Array>
          </mxGeometry>
        </mxCell>
        <mxCell id="iXPqiAgGhzlMh0pPjfNR-36" value="管理员" style="edgeStyle=orthogonalEdgeStyle;rounded=0;orthogonalLoop=1;jettySize=auto;html=1;" edge="1" parent="1" source="iXPqiAgGhzlMh0pPjfNR-2" target="iXPqiAgGhzlMh0pPjfNR-35">
          <mxGeometry relative="1" as="geometry">
            <Array as="points">
              <mxPoint x="690" y="210" />
            </Array>
          </mxGeometry>
        </mxCell>
        <mxCell id="iXPqiAgGhzlMh0pPjfNR-2" value="判断用户类型" style="rhombus;whiteSpace=wrap;html=1;" vertex="1" parent="1">
          <mxGeometry x="370" y="170" width="80" height="80" as="geometry" />
        </mxCell>
        <mxCell id="iXPqiAgGhzlMh0pPjfNR-7" style="edgeStyle=orthogonalEdgeStyle;rounded=0;orthogonalLoop=1;jettySize=auto;html=1;" edge="1" parent="1" source="iXPqiAgGhzlMh0pPjfNR-4" target="iXPqiAgGhzlMh0pPjfNR-6">
          <mxGeometry relative="1" as="geometry" />
        </mxCell>
        <mxCell id="iXPqiAgGhzlMh0pPjfNR-4" value="绘制用户界面" style="rounded=0;whiteSpace=wrap;html=1;" vertex="1" parent="1">
          <mxGeometry x="-10" y="250" width="120" height="60" as="geometry" />
        </mxCell>
        <mxCell id="iXPqiAgGhzlMh0pPjfNR-12" style="edgeStyle=orthogonalEdgeStyle;rounded=0;orthogonalLoop=1;jettySize=auto;html=1;" edge="1" parent="1" source="iXPqiAgGhzlMh0pPjfNR-6" target="iXPqiAgGhzlMh0pPjfNR-8">
          <mxGeometry relative="1" as="geometry" />
        </mxCell>
        <mxCell id="iXPqiAgGhzlMh0pPjfNR-6" value="选择功能" style="shape=parallelogram;perimeter=parallelogramPerimeter;whiteSpace=wrap;html=1;fixedSize=1;" vertex="1" parent="1">
          <mxGeometry x="-10" y="380" width="120" height="60" as="geometry" />
        </mxCell>
        <mxCell id="iXPqiAgGhzlMh0pPjfNR-13" value="否" style="edgeStyle=orthogonalEdgeStyle;rounded=0;orthogonalLoop=1;jettySize=auto;html=1;" edge="1" parent="1" source="iXPqiAgGhzlMh0pPjfNR-8" target="iXPqiAgGhzlMh0pPjfNR-9">
          <mxGeometry relative="1" as="geometry" />
        </mxCell>
        <mxCell id="iXPqiAgGhzlMh0pPjfNR-16" value="是" style="edgeStyle=orthogonalEdgeStyle;rounded=0;orthogonalLoop=1;jettySize=auto;html=1;" edge="1" parent="1" source="iXPqiAgGhzlMh0pPjfNR-8" target="iXPqiAgGhzlMh0pPjfNR-15">
          <mxGeometry relative="1" as="geometry">
            <Array as="points">
              <mxPoint x="-120" y="630" />
              <mxPoint x="-120" y="630" />
            </Array>
          </mxGeometry>
        </mxCell>
        <mxCell id="iXPqiAgGhzlMh0pPjfNR-8" value="查看" style="rhombus;whiteSpace=wrap;html=1;" vertex="1" parent="1">
          <mxGeometry x="-160" y="520" width="80" height="80" as="geometry" />
        </mxCell>
        <mxCell id="iXPqiAgGhzlMh0pPjfNR-14" value="否" style="edgeStyle=orthogonalEdgeStyle;rounded=0;orthogonalLoop=1;jettySize=auto;html=1;" edge="1" parent="1" source="iXPqiAgGhzlMh0pPjfNR-9" target="iXPqiAgGhzlMh0pPjfNR-10">
          <mxGeometry relative="1" as="geometry" />
        </mxCell>
        <mxCell id="iXPqiAgGhzlMh0pPjfNR-21" value="是" style="edgeStyle=orthogonalEdgeStyle;rounded=0;orthogonalLoop=1;jettySize=auto;html=1;" edge="1" parent="1" source="iXPqiAgGhzlMh0pPjfNR-9" target="iXPqiAgGhzlMh0pPjfNR-20">
          <mxGeometry relative="1" as="geometry" />
        </mxCell>
        <mxCell id="iXPqiAgGhzlMh0pPjfNR-9" value="搜索" style="rhombus;whiteSpace=wrap;html=1;" vertex="1" parent="1">
          <mxGeometry x="10" y="520" width="80" height="80" as="geometry" />
        </mxCell>
        <mxCell id="iXPqiAgGhzlMh0pPjfNR-33" value="是" style="edgeStyle=orthogonalEdgeStyle;rounded=0;orthogonalLoop=1;jettySize=auto;html=1;" edge="1" parent="1" source="iXPqiAgGhzlMh0pPjfNR-10" target="iXPqiAgGhzlMh0pPjfNR-32">
          <mxGeometry relative="1" as="geometry" />
        </mxCell>
        <mxCell id="iXPqiAgGhzlMh0pPjfNR-34" value="否" style="edgeStyle=orthogonalEdgeStyle;rounded=0;orthogonalLoop=1;jettySize=auto;html=1;" edge="1" parent="1" source="iXPqiAgGhzlMh0pPjfNR-10" target="iXPqiAgGhzlMh0pPjfNR-6">
          <mxGeometry x="-0.76" relative="1" as="geometry">
            <Array as="points">
              <mxPoint x="330" y="340" />
              <mxPoint x="50" y="340" />
            </Array>
            <mxPoint as="offset" />
          </mxGeometry>
        </mxCell>
        <mxCell id="iXPqiAgGhzlMh0pPjfNR-10" value="退出" style="rhombus;whiteSpace=wrap;html=1;" vertex="1" parent="1">
          <mxGeometry x="290" y="520" width="80" height="80" as="geometry" />
        </mxCell>
        <mxCell id="iXPqiAgGhzlMh0pPjfNR-18" style="edgeStyle=orthogonalEdgeStyle;rounded=0;orthogonalLoop=1;jettySize=auto;html=1;" edge="1" parent="1" source="iXPqiAgGhzlMh0pPjfNR-15" target="iXPqiAgGhzlMh0pPjfNR-17">
          <mxGeometry relative="1" as="geometry" />
        </mxCell>
        <mxCell id="iXPqiAgGhzlMh0pPjfNR-15" value="绘制公告内容" style="rounded=0;whiteSpace=wrap;html=1;" vertex="1" parent="1">
          <mxGeometry x="-180" y="660" width="120" height="60" as="geometry" />
        </mxCell>
        <mxCell id="iXPqiAgGhzlMh0pPjfNR-17" value="结束" style="rounded=1;whiteSpace=wrap;html=1;" vertex="1" parent="1">
          <mxGeometry x="-180" y="790" width="120" height="60" as="geometry" />
        </mxCell>
        <mxCell id="iXPqiAgGhzlMh0pPjfNR-23" style="edgeStyle=orthogonalEdgeStyle;rounded=0;orthogonalLoop=1;jettySize=auto;html=1;" edge="1" parent="1" source="iXPqiAgGhzlMh0pPjfNR-20" target="iXPqiAgGhzlMh0pPjfNR-22">
          <mxGeometry relative="1" as="geometry" />
        </mxCell>
        <mxCell id="iXPqiAgGhzlMh0pPjfNR-20" value="输入搜索内容" style="shape=parallelogram;perimeter=parallelogramPerimeter;whiteSpace=wrap;html=1;fixedSize=1;" vertex="1" parent="1">
          <mxGeometry x="-10" y="660" width="120" height="60" as="geometry" />
        </mxCell>
        <mxCell id="iXPqiAgGhzlMh0pPjfNR-26" value="是" style="edgeStyle=orthogonalEdgeStyle;rounded=0;orthogonalLoop=1;jettySize=auto;html=1;" edge="1" parent="1" source="iXPqiAgGhzlMh0pPjfNR-22" target="iXPqiAgGhzlMh0pPjfNR-25">
          <mxGeometry relative="1" as="geometry" />
        </mxCell>
        <mxCell id="iXPqiAgGhzlMh0pPjfNR-27" value="否" style="edgeStyle=orthogonalEdgeStyle;rounded=0;orthogonalLoop=1;jettySize=auto;html=1;" edge="1" parent="1" source="iXPqiAgGhzlMh0pPjfNR-22" target="iXPqiAgGhzlMh0pPjfNR-28">
          <mxGeometry relative="1" as="geometry">
            <mxPoint x="170" y="760" as="targetPoint" />
          </mxGeometry>
        </mxCell>
        <mxCell id="iXPqiAgGhzlMh0pPjfNR-22" value="是否有相关信息" style="rhombus;whiteSpace=wrap;html=1;" vertex="1" parent="1">
          <mxGeometry x="10" y="780" width="80" height="80" as="geometry" />
        </mxCell>
        <mxCell id="iXPqiAgGhzlMh0pPjfNR-31" style="edgeStyle=orthogonalEdgeStyle;rounded=0;orthogonalLoop=1;jettySize=auto;html=1;" edge="1" parent="1" source="iXPqiAgGhzlMh0pPjfNR-25">
          <mxGeometry relative="1" as="geometry">
            <mxPoint x="50" y="1040" as="targetPoint" />
          </mxGeometry>
        </mxCell>
        <mxCell id="iXPqiAgGhzlMh0pPjfNR-25" value="绘制相关公告" style="rounded=0;whiteSpace=wrap;html=1;" vertex="1" parent="1">
          <mxGeometry x="-10" y="920" width="120" height="60" as="geometry" />
        </mxCell>
        <mxCell id="iXPqiAgGhzlMh0pPjfNR-29" style="edgeStyle=orthogonalEdgeStyle;rounded=0;orthogonalLoop=1;jettySize=auto;html=1;" edge="1" parent="1" source="iXPqiAgGhzlMh0pPjfNR-28" target="iXPqiAgGhzlMh0pPjfNR-20">
          <mxGeometry relative="1" as="geometry">
            <Array as="points">
              <mxPoint x="190" y="630" />
              <mxPoint x="50" y="630" />
            </Array>
          </mxGeometry>
        </mxCell>
        <mxCell id="iXPqiAgGhzlMh0pPjfNR-28" value="返回错误" style="rounded=0;whiteSpace=wrap;html=1;" vertex="1" parent="1">
          <mxGeometry x="130" y="690" width="120" height="60" as="geometry" />
        </mxCell>
        <mxCell id="iXPqiAgGhzlMh0pPjfNR-30" value="结束" style="rounded=1;whiteSpace=wrap;html=1;" vertex="1" parent="1">
          <mxGeometry x="-10" y="1040" width="120" height="60" as="geometry" />
        </mxCell>
        <mxCell id="iXPqiAgGhzlMh0pPjfNR-32" value="结束" style="rounded=1;whiteSpace=wrap;html=1;" vertex="1" parent="1">
          <mxGeometry x="270" y="690" width="120" height="60" as="geometry" />
        </mxCell>
        <mxCell id="iXPqiAgGhzlMh0pPjfNR-38" style="edgeStyle=orthogonalEdgeStyle;rounded=0;orthogonalLoop=1;jettySize=auto;html=1;" edge="1" parent="1" source="iXPqiAgGhzlMh0pPjfNR-35" target="iXPqiAgGhzlMh0pPjfNR-37">
          <mxGeometry relative="1" as="geometry" />
        </mxCell>
        <mxCell id="iXPqiAgGhzlMh0pPjfNR-35" value="绘制管理员界面" style="rounded=0;whiteSpace=wrap;html=1;" vertex="1" parent="1">
          <mxGeometry x="630" y="250" width="120" height="60" as="geometry" />
        </mxCell>
        <mxCell id="iXPqiAgGhzlMh0pPjfNR-43" style="edgeStyle=orthogonalEdgeStyle;rounded=0;orthogonalLoop=1;jettySize=auto;html=1;" edge="1" parent="1" source="iXPqiAgGhzlMh0pPjfNR-37" target="iXPqiAgGhzlMh0pPjfNR-39">
          <mxGeometry relative="1" as="geometry" />
        </mxCell>
        <mxCell id="iXPqiAgGhzlMh0pPjfNR-37" value="选择功能" style="shape=parallelogram;perimeter=parallelogramPerimeter;whiteSpace=wrap;html=1;fixedSize=1;" vertex="1" parent="1">
          <mxGeometry x="630" y="380" width="120" height="60" as="geometry" />
        </mxCell>
        <mxCell id="iXPqiAgGhzlMh0pPjfNR-45" value="否" style="edgeStyle=orthogonalEdgeStyle;rounded=0;orthogonalLoop=1;jettySize=auto;html=1;" edge="1" parent="1" source="iXPqiAgGhzlMh0pPjfNR-39" target="iXPqiAgGhzlMh0pPjfNR-40">
          <mxGeometry relative="1" as="geometry" />
        </mxCell>
        <mxCell id="iXPqiAgGhzlMh0pPjfNR-53" value="是" style="edgeStyle=orthogonalEdgeStyle;rounded=0;orthogonalLoop=1;jettySize=auto;html=1;" edge="1" parent="1" source="iXPqiAgGhzlMh0pPjfNR-39" target="iXPqiAgGhzlMh0pPjfNR-52">
          <mxGeometry relative="1" as="geometry" />
        </mxCell>
        <mxCell id="iXPqiAgGhzlMh0pPjfNR-39" value="添加" style="rhombus;whiteSpace=wrap;html=1;" vertex="1" parent="1">
          <mxGeometry x="480" y="520" width="80" height="80" as="geometry" />
        </mxCell>
        <mxCell id="iXPqiAgGhzlMh0pPjfNR-46" value="否" style="edgeStyle=orthogonalEdgeStyle;rounded=0;orthogonalLoop=1;jettySize=auto;html=1;" edge="1" parent="1" source="iXPqiAgGhzlMh0pPjfNR-40" target="iXPqiAgGhzlMh0pPjfNR-41">
          <mxGeometry relative="1" as="geometry" />
        </mxCell>
        <mxCell id="iXPqiAgGhzlMh0pPjfNR-59" style="edgeStyle=orthogonalEdgeStyle;rounded=0;orthogonalLoop=1;jettySize=auto;html=1;" edge="1" parent="1" source="iXPqiAgGhzlMh0pPjfNR-40" target="iXPqiAgGhzlMh0pPjfNR-58">
          <mxGeometry relative="1" as="geometry" />
        </mxCell>
        <mxCell id="iXPqiAgGhzlMh0pPjfNR-40" value="修改" style="rhombus;whiteSpace=wrap;html=1;" vertex="1" parent="1">
          <mxGeometry x="650" y="520" width="80" height="80" as="geometry" />
        </mxCell>
        <mxCell id="iXPqiAgGhzlMh0pPjfNR-47" value="否" style="edgeStyle=orthogonalEdgeStyle;rounded=0;orthogonalLoop=1;jettySize=auto;html=1;" edge="1" parent="1" source="iXPqiAgGhzlMh0pPjfNR-41" target="iXPqiAgGhzlMh0pPjfNR-42">
          <mxGeometry relative="1" as="geometry" />
        </mxCell>
        <mxCell id="iXPqiAgGhzlMh0pPjfNR-41" value="删除" style="rhombus;whiteSpace=wrap;html=1;" vertex="1" parent="1">
          <mxGeometry x="820" y="520" width="80" height="80" as="geometry" />
        </mxCell>
        <mxCell id="iXPqiAgGhzlMh0pPjfNR-56" style="edgeStyle=orthogonalEdgeStyle;rounded=0;orthogonalLoop=1;jettySize=auto;html=1;" edge="1" parent="1" source="iXPqiAgGhzlMh0pPjfNR-42" target="iXPqiAgGhzlMh0pPjfNR-37">
          <mxGeometry relative="1" as="geometry">
            <Array as="points">
              <mxPoint x="1030" y="340" />
              <mxPoint x="690" y="340" />
            </Array>
          </mxGeometry>
        </mxCell>
        <mxCell id="iXPqiAgGhzlMh0pPjfNR-57" value="否" style="edgeLabel;html=1;align=center;verticalAlign=middle;resizable=0;points=[];" vertex="1" connectable="0" parent="iXPqiAgGhzlMh0pPjfNR-56">
          <mxGeometry x="-0.8464" relative="1" as="geometry">
            <mxPoint as="offset" />
          </mxGeometry>
        </mxCell>
        <mxCell id="iXPqiAgGhzlMh0pPjfNR-42" value="退出" style="rhombus;whiteSpace=wrap;html=1;" vertex="1" parent="1">
          <mxGeometry x="990" y="520" width="80" height="80" as="geometry" />
        </mxCell>
        <mxCell id="iXPqiAgGhzlMh0pPjfNR-55" style="edgeStyle=orthogonalEdgeStyle;rounded=0;orthogonalLoop=1;jettySize=auto;html=1;" edge="1" parent="1" source="iXPqiAgGhzlMh0pPjfNR-52" target="iXPqiAgGhzlMh0pPjfNR-54">
          <mxGeometry relative="1" as="geometry" />
        </mxCell>
        <mxCell id="iXPqiAgGhzlMh0pPjfNR-52" value="编写公告" style="shape=parallelogram;perimeter=parallelogramPerimeter;whiteSpace=wrap;html=1;fixedSize=1;" vertex="1" parent="1">
          <mxGeometry x="460" y="690" width="120" height="60" as="geometry" />
        </mxCell>
        <mxCell id="iXPqiAgGhzlMh0pPjfNR-54" value="结束" style="rounded=1;whiteSpace=wrap;html=1;" vertex="1" parent="1">
          <mxGeometry x="460" y="830" width="120" height="60" as="geometry" />
        </mxCell>
        <mxCell id="iXPqiAgGhzlMh0pPjfNR-61" style="edgeStyle=orthogonalEdgeStyle;rounded=0;orthogonalLoop=1;jettySize=auto;html=1;" edge="1" parent="1" source="iXPqiAgGhzlMh0pPjfNR-58" target="iXPqiAgGhzlMh0pPjfNR-60">
          <mxGeometry relative="1" as="geometry" />
        </mxCell>
        <mxCell id="iXPqiAgGhzlMh0pPjfNR-58" value="输入要修改的公告" style="shape=parallelogram;perimeter=parallelogramPerimeter;whiteSpace=wrap;html=1;fixedSize=1;" vertex="1" parent="1">
          <mxGeometry x="630" y="690" width="120" height="60" as="geometry" />
        </mxCell>
        <mxCell id="iXPqiAgGhzlMh0pPjfNR-64" value="否" style="edgeStyle=orthogonalEdgeStyle;rounded=0;orthogonalLoop=1;jettySize=auto;html=1;" edge="1" parent="1" source="iXPqiAgGhzlMh0pPjfNR-60" target="iXPqiAgGhzlMh0pPjfNR-63">
          <mxGeometry x="-0.4737" relative="1" as="geometry">
            <mxPoint as="offset" />
          </mxGeometry>
        </mxCell>
        <mxCell id="iXPqiAgGhzlMh0pPjfNR-67" value="是" style="edgeStyle=orthogonalEdgeStyle;rounded=0;orthogonalLoop=1;jettySize=auto;html=1;" edge="1" parent="1" source="iXPqiAgGhzlMh0pPjfNR-60" target="iXPqiAgGhzlMh0pPjfNR-66">
          <mxGeometry relative="1" as="geometry" />
        </mxCell>
        <mxCell id="iXPqiAgGhzlMh0pPjfNR-60" value="是否存在" style="rhombus;whiteSpace=wrap;html=1;" vertex="1" parent="1">
          <mxGeometry x="650" y="820" width="80" height="80" as="geometry" />
        </mxCell>
        <mxCell id="iXPqiAgGhzlMh0pPjfNR-65" style="edgeStyle=orthogonalEdgeStyle;rounded=0;orthogonalLoop=1;jettySize=auto;html=1;" edge="1" parent="1" source="iXPqiAgGhzlMh0pPjfNR-63" target="iXPqiAgGhzlMh0pPjfNR-58">
          <mxGeometry relative="1" as="geometry">
            <Array as="points">
              <mxPoint x="830" y="640" />
              <mxPoint x="690" y="640" />
            </Array>
          </mxGeometry>
        </mxCell>
        <mxCell id="iXPqiAgGhzlMh0pPjfNR-63" value="返回错误" style="rounded=0;whiteSpace=wrap;html=1;" vertex="1" parent="1">
          <mxGeometry x="770" y="710" width="120" height="60" as="geometry" />
        </mxCell>
        <mxCell id="iXPqiAgGhzlMh0pPjfNR-69" style="edgeStyle=orthogonalEdgeStyle;rounded=0;orthogonalLoop=1;jettySize=auto;html=1;" edge="1" parent="1" source="iXPqiAgGhzlMh0pPjfNR-66" target="iXPqiAgGhzlMh0pPjfNR-68">
          <mxGeometry relative="1" as="geometry" />
        </mxCell>
        <mxCell id="iXPqiAgGhzlMh0pPjfNR-66" value="输入新的公告内容" style="shape=parallelogram;perimeter=parallelogramPerimeter;whiteSpace=wrap;html=1;fixedSize=1;" vertex="1" parent="1">
          <mxGeometry x="630" y="960" width="120" height="60" as="geometry" />
        </mxCell>
        <mxCell id="iXPqiAgGhzlMh0pPjfNR-68" value="结束" style="rounded=1;whiteSpace=wrap;html=1;" vertex="1" parent="1">
          <mxGeometry x="630" y="1080" width="120" height="60" as="geometry" />
        </mxCell>
      </root>
    </mxGraphModel>
  </diagram>
</mxfile>
